g lightSignal
v 0.20574 -0.2647941 -0.2057381
v -0.20574 -0.2647941 -0.2057381
v 0.5205384 24.257 -0.5205383
v -0.5205384 24.257 -0.5205383
v 0.5205384 24.257 0.5205383
v -0.5205384 24.257 0.5205383
v 0.20574 -0.2647941 0.2057381
v -0.20574 -0.2647941 0.2057381
v 2.367032 23.89522 -1.10323
v -2.367032 23.89522 -1.10323
v 3.264648 36.41027 -1.10323
v -3.264647 36.41027 -1.10323
v 3.264648 36.41027 1.10323
v -3.264647 36.41027 1.10323
v 2.367032 23.89522 1.10323
v -2.367032 23.89522 1.10323
v 1.671942 38.10791 -1.10323
v -1.671942 38.10791 -1.10323
v -1.671942 38.10791 1.10323
v 1.671942 38.10791 1.10323
v -2.710852 37.48309 -1.10323
v 2.710852 37.48309 -1.10323
v 2.710852 37.48309 1.10323
v -2.710852 37.48309 1.10323
v 0.04010567 23.89522 -1.10323
v 0.003322929 36.41027 -1.10323
v 0.02601644 37.48309 -1.10323
v 0.06859025 38.10791 -1.10323
v 0.06859025 38.10791 1.10323
v 0.04010567 23.89522 1.10323
v 0.3762748 13.01933 -0.3762739
v 0.3762748 13.01933 0.3762739
v -0.3762748 13.01933 0.3762739
v -0.3762748 13.01933 -0.3762739
v 0.04010567 23.89522 -1.10323
v 2.367032 23.89522 -1.10323
v 3.264648 36.41027 -1.10323
v 2.710852 37.48309 -1.10323
v 0.06859025 38.10791 -1.10323
v 1.671942 38.10791 -1.10323
v 1.671942 38.10791 -1.10323
v 1.671942 38.10791 1.10323
v -3.264647 36.41027 -1.10323
v -2.367032 23.89522 -1.10323
v -2.710852 37.48309 -1.10323
v -1.671942 38.10791 -1.10323
v -2.367032 23.89522 1.10323
v -2.367032 23.89522 -1.10323
vt 0.9873258 0.2518299
vt 0.9873258 0.2852344
vt 0.9873258 0.25183
vt 0.9873258 0.2852344
vt 0.9873258 0.2852344
vt 0.9873258 0.25183
vt 0.9873258 0.2852344
vt 0.9873258 0.2518299
vt 0.1702827 0.2476391
vt 0.3562864 0.169039
vt 0.3145808 0.2591659
vt 0.3562864 0.2147204
vt 0.3562864 0.2147878
vt 0.3653287 0.2147204
vt 0.3562864 0.169039
vt 0.3653287 0.169039
vt 0.3562864 0.2218946
vt 0.3562864 0.2218801
vt 0.3653287 0.2218801
vt 0.3653287 0.2218946
vt 0.3562864 0.2192698
vt 0.3240272 0.2527328
vt 0.3562864 0.2192698
vt 0.3653287 0.2192698
vt 0.1702828 0.2232226
vt 0.3134222 0.2232227
vt 0.3242203 0.2232227
vt 0.3562864 0.2352073
vt 0.3653287 0.2352073
vt 0.3562864 0.1505356
vt 0.9094449 0.2518299
vt 0.9094455 0.2852344
vt 0.9094449 0.2518299
vt 0.9094455 0.2852344
vt 0.3653287 0.1505356
vt 0.3653287 0.169039
vt 0.3653287 0.2147878
vt 0.3653287 0.2192698
vt 0.3293365 0.2232227
vt 0.3293365 0.2437143
vt 0.3653287 0.2218801
vt 0.3562864 0.2218801
vt 0.3145808 0.2591659
vt 0.1702827 0.2476391
vt 0.3240272 0.2527328
vt 0.3293365 0.2434759
vt 0.3562864 0.1690258
vt 0.3653287 0.1690258
vn 0.7069904 -0.01815202 -0.7069902
vn -0.7069904 -0.01815202 -0.7069902
vn 0.7069903 -0.01815202 -0.7069903
vn -0.7069903 -0.01815202 -0.7069903
vn 0.9999176 -0.01283644 0
vn -0.9999176 -0.01283644 0
vn 0.9999176 -0.01283644 0
vn -0.9999176 -0.01283644 0
vn 0.562611 -0.6044083 -0.5640562
vn -0.562611 -0.6044083 -0.5640562
vn 0.6793696 0.1394582 -0.7204224
vn -0.6793696 0.139458 -0.7204223
vn 0.9795742 0.201083 0
vn -0.9795743 0.2010827 0
vn 0.6813445 -0.7319628 0
vn -0.6813446 -0.7319627 0
vn 0.2373782 0.8552858 -0.4605842
vn -0.2373783 0.8552858 -0.4605842
vn -0.2674335 0.9635763 0
vn 0.2674334 0.9635764 0
vn -0.5058898 0.4740641 -0.7206517
vn 0.5058897 0.4740644 -0.7206516
vn 0.7296863 0.6837821 0
vn -0.7296866 0.6837817 0
vn 0 -0.7071068 -0.7071068
vn 0 0 -1
vn 0 0 -1
vn 0 0.7071068 -0.7071068
vn 0 1 0
vn 0 -1 0
vn 0.7069904 -0.01815202 -0.7069903
vn 0.9999176 -0.01283644 0
vn -0.9999176 -0.01283644 0
vn -0.7069904 -0.01815202 -0.7069903
vn 0 -0.7071068 -0.7071068
vn 0.562611 -0.6044083 -0.5640562
vn 0.6793696 0.1394582 -0.7204224
vn 0.5058897 0.4740644 -0.7206516
vn 0 0.7071068 -0.7071068
vn 0.2373782 0.8552858 -0.4605842
vn 0.2373782 0.8552858 -0.4605842
vn 0.2674334 0.9635764 0
vn -0.6793696 0.139458 -0.7204223
vn -0.562611 -0.6044083 -0.5640562
vn -0.5058898 0.4740641 -0.7206517
vn -0.2373783 0.8552858 -0.4605842
vn -0.6813446 -0.7319627 0
vn -0.562611 -0.6044083 -0.5640562
g lightSignal_0
f 31/31/31 32/32/32 7/7/7
f 1/1/1 31/31/31 7/7/7
f 34/34/34 31/31/31 1/1/1
f 2/2/2 34/34/34 1/1/1
f 33/33/33 34/34/34 2/2/2
f 8/8/8 33/33/33 2/2/2
f 29/29/29 28/28/28 18/18/18
f 17/17/17 28/28/28 29/29/29
f 20/20/20 17/17/17 29/29/29
f 14/14/14 10/10/10 16/16/16
f 12/12/12 10/10/10 14/14/14
f 24/24/24 12/12/12 14/14/14
f 21/21/21 12/12/12 24/24/24
f 19/19/19 21/21/21 24/24/24
f 18/18/18 21/21/21 19/19/19
f 29/29/29 18/18/18 19/19/19
f 26/26/26 9/9/9 25/25/25
f 11/11/11 9/9/9 26/26/26
f 27/27/27 11/11/11 26/26/26
f 22/22/22 11/11/11 27/27/27
f 39/39/39 22/22/22 27/27/27
f 40/40/40 22/22/22 39/39/39
f 23/23/23 41/41/41 42/42/42
f 38/38/38 41/41/41 23/23/23
f 13/13/13 38/38/38 23/23/23
f 37/37/37 38/38/38 13/13/13
f 15/15/15 37/37/37 13/13/13
f 36/36/36 37/37/37 15/15/15
f 35/35/35 36/36/36 15/15/15
f 43/43/43 25/25/25 44/44/44
f 26/26/26 25/25/25 43/43/43
f 27/27/27 26/26/26 43/43/43
f 45/45/45 27/27/27 43/43/43
f 39/39/39 27/27/27 45/45/45
f 46/46/46 39/39/39 45/45/45
f 35/35/35 47/47/47 48/48/48
f 30/30/30 47/47/47 35/35/35
f 15/15/15 30/30/30 35/35/35
f 34/34/34 33/33/33 6/6/6
f 4/4/4 34/34/34 6/6/6
f 31/31/31 34/34/34 4/4/4
f 3/3/3 31/31/31 4/4/4
f 32/32/32 31/31/31 3/3/3
f 5/5/5 32/32/32 3/3/3
